<svg width="720" height="520" viewBox="0 0 720 520" fill="none" xmlns="http://www.w3.org/2000/svg">
  <rect width="720" height="520" rx="36" fill="#101a44"/>
  <circle cx="602" cy="96" r="80" fill="#F04B91" opacity="0.8"/>
  <circle cx="118" cy="420" r="110" fill="#682BD7" opacity="0.65"/>
  <path d="M171 165C171 142.909 188.909 125 211 125H547C569.091 125 587 142.909 587 165V213C564.909 213 547 230.909 547 253C547 275.091 564.909 293 587 293V355C587 377.091 569.091 395 547 395H211C188.909 395 171 377.091 171 355V293C193.091 293 211 275.091 211 253C211 230.909 193.091 213 171 213V165Z" fill="white"/>
  <path d="M277 155V365" stroke="#D7DEF2" stroke-width="8" stroke-linecap="round" stroke-dasharray="8 20"/>
  <rect x="317" y="169" width="190" height="26" rx="13" fill="#173B8F"/>
  <rect x="317" y="219" width="132" height="18" rx="9" fill="#682BD7" opacity="0.85"/>
  <rect x="317" y="259" width="164" height="18" rx="9" fill="#F04B91" opacity="0.85"/>
  <rect x="317" y="307" width="210" height="42" rx="21" fill="#0B1026"/>
  <text x="348" y="334" fill="white" font-family="Arial" font-size="18" font-weight="700">TICKETNOW</text>
</svg>
